<svg width="145" height="145" viewBox="0 0 145 145" fill="none" xmlns="http://www.w3.org/2000/svg">
<circle cx="72.5" cy="72.5" r="72.5" fill="#111827"/>
<path d="M34.358 96H44.1989V80.9091H52.4716C63.1761 80.9091 69.4034 74.5227 69.4034 65.2273C69.4034 55.9773 63.2898 49.4545 52.7216 49.4545H34.358V96ZM44.1989 73.0227V57.5H50.8352C56.517 57.5 59.267 60.5909 59.267 65.2273C59.267 69.8409 56.517 73.0227 50.8807 73.0227H44.1989ZM94.1818 61.0909H87.6136V52.7273H77.9318V61.0909H73.1591V68.3636H77.9318V86.5455C77.8864 93.3864 82.5455 96.7727 89.5682 96.4773C92.0682 96.3864 93.8409 95.8864 94.8182 95.5682L93.2955 88.3636C92.8182 88.4545 91.7955 88.6818 90.8864 88.6818C88.9545 88.6818 87.6136 87.9545 87.6136 85.2727V68.3636H94.1818V61.0909ZM106.148 96.5909C109.057 96.5909 111.58 94.1591 111.602 91.1364C111.58 88.1591 109.057 85.7273 106.148 85.7273C103.148 85.7273 100.67 88.1591 100.693 91.1364C100.67 94.1591 103.148 96.5909 106.148 96.5909Z" fill="#FF9A3C"/>
</svg>
